<svg xmlns="http://www.w3.org/2000/svg" viewBox="0 0 1445 458" role="img" aria-label="Vizela Empreende">
  <title>Vizela Empreende</title>
  <path fill="#00B4BC" transform="translate(20, 20.0)" d="M 269 408 L 190 405 L 10 76 L 120 77 L 240 295 L 268 336 L 430 50 L 429 46 L 386 48 L 245 294 L 226 258 L 366 14 L 370 10 L 488 12 Z"/>
<g fill="#0F1F44" transform="translate(551.000, 259.000)">
  <path transform="translate(0.000, 0) scale(0.259000, -0.259000)" d="M721 702 472 0H258L9 702H191L365 172L540 702Z"/>
  <path transform="translate(189.070, 0) scale(0.259000, -0.259000)" d="M233 702V0H62V702Z"/>
  <path transform="translate(265.475, 0) scale(0.259000, -0.259000)" d="M244 140H546V0H50V130L350 562H50V702H546V572Z"/>
  <path transform="translate(419.839, 0) scale(0.259000, -0.259000)" d="M233 565V423H462V291H233V137H492V0H62V702H492V565Z"/>
  <path transform="translate(559.958, 0) scale(0.259000, -0.259000)" d="M233 132H457V0H62V702H233Z"/>
  <path transform="translate(683.501, 0) scale(0.259000, -0.259000)" d="M499 124H237L195 0H16L270 702H468L722 0H541ZM455 256 368 513 282 256Z"/>
</g>
<g fill="#00B4BC" transform="translate(562.091, 382.000)">
  <path transform="translate(0.000, 0) scale(0.146000, -0.146000)" d="M233 565V423H462V291H233V137H492V0H62V702H492V565Z"/>
  <path transform="translate(78.986, 0) scale(0.146000, -0.146000)" d="M857 702V0H686V421L529 0H391L233 422V0H62V702H264L461 216L656 702Z"/>
  <path transform="translate(213.014, 0) scale(0.146000, -0.146000)" d="M339 252H233V0H62V702H339Q423 702 481.0 673.0Q539 644 568.0 593.0Q597 542 597 476Q597 415 569.0 364.5Q541 314 483.0 283.0Q425 252 339 252ZM423 476Q423 518 399.0 541.0Q375 564 326 564H233V388H326Q375 388 399.0 411.0Q423 434 423 476Z"/>
  <path transform="translate(304.118, 0) scale(0.146000, -0.146000)" d="M420 0 274 265H233V0H62V702H349Q432 702 490.5 673.0Q549 644 578.0 593.5Q607 543 607 481Q607 411 567.5 356.0Q528 301 451 278L613 0ZM233 386H339Q386 386 409.5 409.0Q433 432 433 474Q433 514 409.5 537.0Q386 560 339 560H233Z"/>
  <path transform="translate(399.310, 0) scale(0.146000, -0.146000)" d="M233 565V423H462V291H233V137H492V0H62V702H492V565Z"/>
  <path transform="translate(478.296, 0) scale(0.146000, -0.146000)" d="M233 565V423H462V291H233V137H492V0H62V702H492V565Z"/>
  <path transform="translate(557.282, 0) scale(0.146000, -0.146000)" d="M690 0H519L233 433V0H62V702H233L519 267V702H690Z"/>
  <path transform="translate(667.074, 0) scale(0.146000, -0.146000)" d="M693 351Q693 248 647.5 168.0Q602 88 518.5 44.0Q435 0 325 0H62V702H325Q436 702 519.0 658.0Q602 614 647.5 534.5Q693 455 693 351ZM519 351Q519 448 465.0 502.0Q411 556 314 556H233V148H314Q411 148 465.0 201.0Q519 254 519 351Z"/>
  <path transform="translate(773.216, 0) scale(0.146000, -0.146000)" d="M233 565V423H462V291H233V137H492V0H62V702H492V565Z"/>
</g>
</svg>
